PathFileType	4	(X/Y/Z)	C:/Users/opensim2020/Desktop/walking_exp_matlab/subject06_walking19_straight_04.trc	
DataRate	CameraRate	NumFrames	NumMarkers	Units	OrigDataRate	OrigDataStartFrame	OrigNumFrames	
100.00	100.00	5	49	mm	100.00	4714	340	
Frame#	Time	LFHD			RFHD			LBHD			RBHD			C7			T10			CLAV			STRN			RBAK			LSHO			LUPA			LELB			LFRM			LWRA			LWRB			LFIN			RSHO			RUPA			RELB			RFRM			RWRA			RWRB			RFIN			LASI			RASI			LPSI			RPSI			LTHI			LKNE			LTIB			LANK			LHEE			LTOE			RTHI			RKNE			RTIB			RANK			RHEE			RTOE			*39			*40			*41			*42			*43			*44			*45			*46			*47			*48			
		X1	Y1	Z1	X2	Y2	Z2	X3	Y3	Z3	X4	Y4	Z4	X5	Y5	Z5	X6	Y6	Z6	X7	Y7	Z7	X8	Y8	Z8	X9	Y9	Z9	X10	Y10	Z10	X11	Y11	Z11	X12	Y12	Z12	X13	Y13	Z13	X14	Y14	Z14	X15	Y15	Z15	X16	Y16	Z16	X17	Y17	Z17	X18	Y18	Z18	X19	Y19	Z19	X20	Y20	Z20	X21	Y21	Z21	X22	Y22	Z22	X23	Y23	Z23	X24	Y24	Z24	X25	Y25	Z25	X26	Y26	Z26	X27	Y27	Z27	X28	Y28	Z28	X29	Y29	Z29	X30	Y30	Z30	X31	Y31	Z31	X32	Y32	Z32	X33	Y33	Z33	X34	Y34	Z34	X35	Y35	Z35	X36	Y36	Z36	X37	Y37	Z37	X38	Y38	Z38	X39	Y39	Z39	X40	Y40	Z40	X41	Y41	Z41	X42	Y42	Z42	X43	Y43	Z43	X44	Y44	Z44	X45	Y45	Z45	X46	Y46	Z46	X47	Y47	Z47	X48	Y48	Z48	X49	Y49	Z49	

171	1.700	-985.73193	194.38701	1674.84546	-1117.10205	188.97079	1662.24792	-989.34680	324.62183	1613.81201	-1118.53418	317.65259	1606.53992	-1044.34082	317.35468	1457.77783	-1054.14453	346.23187	1129.87292	-1042.39917	206.16962	1382.89001	-1035.03357	164.02287	1206.14722	-1126.92810	383.92889	1286.28796	-882.16095	264.98376	1413.11133	-812.09814	255.13963	1210.35645	-802.51752	249.20045	1097.77185	-782.40289	200.14980	955.29077	-823.67230	118.14551	856.02679	-790.05286	178.16637	837.36707	-788.92981	119.97826	767.03650	-1204.65076	245.80896	1413.52698	-1298.18518	279.79333	1217.23157	-1313.10803	269.19843	1095.85632	-1331.94458	245.39430	978.46606	-1301.08142	175.81073	844.44879	-1342.21179	228.85854	842.15063	-1345.01196	185.80246	769.43286	-935.93921	181.05095	965.17841	-1156.82764	167.34457	971.46387	-971.15308	336.59369	997.62659	-1139.76086	320.91391	1004.82263	-882.96210	222.46750	650.12317	-905.04688	199.24141	489.45966	-897.15405	354.13068	295.32733	-923.84741	451.92209	150.64392	-971.54169	493.01428	152.18719	-914.60889	347.05634	54.10910	-1208.23401	231.40363	638.29034	-1181.85632	233.23239	513.12109	-1173.85327	276.43173	250.29849	-1117.96838	283.46942	65.25349	-1074.20459	323.50745	41.00170	-1107.37122	128.69691	33.65109	-1049.17212	293.95703	1707.29907																											 
172	1.710	-986.21948	188.55763	1674.85107	-1117.57935	183.24640	1662.32153	-989.85895	318.89563	1613.94080	-1119.43408	312.28250	1606.69080	-1045.14868	311.76950	1457.88562	-1055.15063	340.90527	1129.98035	-1043.13403	200.60266	1382.94678	-1035.98242	158.83527	1206.12573	-1127.85730	378.50342	1286.60083	-882.84760	259.85968	1413.07410	-812.59229	251.34164	1210.35840	-802.91675	246.36600	1097.80981	-781.71240	199.35495	954.72223	-822.21777	118.14970	854.30261	-789.56305	178.59485	836.44897	-787.65906	121.78439	765.18188	-1205.37659	240.16208	1413.76270	-1298.79407	273.88785	1217.32031	-1314.05457	263.05368	1096.11902	-1332.53882	238.43854	978.88306	-1300.87488	167.96243	845.49976	-1342.22363	220.61073	842.58905	-1344.65735	177.13052	770.39532	-936.99506	175.50197	965.55518	-1157.36047	163.33330	971.07245	-971.84473	331.14038	997.85596	-1140.26819	315.48718	1004.45105	-883.29974	214.63040	650.95508	-906.23444	189.95184	490.51294	-898.02905	340.43768	292.45978	-924.67841	433.84677	144.82646	-972.54028	474.63187	144.58107	-914.89661	325.28214	52.57447	-1208.63550	227.90585	638.01978	-1182.36487	230.29688	512.79895	-1174.00183	275.04190	250.16504	-1118.01379	283.31964	65.38724	-1074.06970	323.42276	41.15201	-1107.60461	128.51154	33.43657	-1049.62488	288.16833	1707.39905																											 
173	1.720	-986.58313	182.79050	1674.73254	-1117.99219	177.50417	1662.44824	-990.37549	313.25638	1614.02100	-1119.48523	306.10059	1606.90759	-1045.75879	305.97449	1458.01624	-1056.12158	335.62918	1130.07764	-1043.83167	195.11848	1382.93018	-1036.88660	153.40895	1206.11072	-1128.76416	373.03775	1286.89587	-883.55194	254.65285	1412.97327	-813.04706	247.52791	1210.25195	-803.25220	243.54665	1097.67493	-781.74890	198.48346	953.95392	-820.76147	118.39767	852.44818	-788.34247	179.74696	835.60889	-786.13867	123.67097	763.40100	-1206.13416	234.52390	1413.96558	-1299.98914	268.11588	1217.68567	-1314.92114	256.99066	1096.30725	-1333.00610	231.59825	979.24969	-1300.60730	160.19533	846.55109	-1342.34009	212.84314	843.19177	-1344.07593	168.56079	771.02295	-938.15314	170.06332	965.82764	-1158.46631	158.55762	970.81635	-972.46692	325.81848	998.16541	-1141.24719	311.02753	1004.54553	-883.73810	206.84787	651.76904	-907.30438	180.86568	491.57114	-898.89752	326.33264	289.37903	-925.59344	415.23380	138.85597	-973.53320	455.96643	137.02110	-915.07257	303.46829	50.83170	-1208.98840	224.43452	637.74896	-1182.80908	227.39513	512.48035	-1174.11060	273.72614	250.14052	-1117.86316	283.22107	65.47197	-1074.10413	323.63712	41.52536	-1107.86975	128.40131	33.28654	-1049.92395	282.32364	1707.48389																											 
174	1.730	-986.87964	177.07231	1674.68030	-1118.31274	171.77412	1662.59290	-990.75897	307.42419	1613.84314	-1119.96130	300.39154	1607.10596	-1046.50354	300.32053	1458.13135	-1057.05127	330.38535	1130.15027	-1044.55042	189.60490	1382.87720	-1037.86145	148.13184	1206.03259	-1129.65088	367.56430	1287.15186	-884.21838	249.24561	1412.76917	-813.47876	243.73222	1210.06494	-803.53870	240.94772	1097.48889	-780.86151	198.13211	953.17340	-819.21100	118.70689	850.54370	-787.86835	180.74940	834.56213	-784.88202	125.98489	761.51324	-1206.87317	228.84810	1414.07068	-1300.83618	262.33719	1217.80457	-1315.74426	251.14003	1096.47107	-1333.41504	224.78526	979.56128	-1300.16418	152.43723	847.57611	-1342.24097	204.55701	843.67126	-1343.40369	160.07130	771.83636	-939.29297	164.62508	966.17743	-1159.81128	153.23058	970.71008	-973.04468	320.40036	998.33875	-1141.93701	306.19046	1004.40784	-884.10315	199.06178	652.54504	-908.19952	171.94502	492.56882	-899.69568	312.08716	286.08444	-926.54218	396.13995	132.83641	-974.55963	436.54529	129.46051	-915.42218	281.10297	49.34177	-1209.27673	220.88826	637.48914	-1183.19336	224.42416	512.16504	-1174.25305	272.41812	250.09473	-1117.52234	283.05963	65.47887	-1074.08948	323.64023	41.74250	-1108.06848	128.23697	33.04367	-1050.15955	276.58957	1707.49524																											 
175	1.740	-987.14886	171.31107	1674.50903	-1118.58435	165.98872	1662.73792	-991.19086	301.75473	1613.79688	-1120.18262	294.45425	1607.22485	-1047.28748	294.57648	1458.26196	-1058.00879	325.09280	1130.24695	-1045.28931	183.93434	1382.83984	-1038.72888	142.59842	1205.97400	-1130.59387	362.19360	1287.45886	-884.87018	243.69006	1412.52258	-813.85608	239.87396	1209.81995	-803.71436	238.18716	1097.26086	-780.80426	197.17899	952.50470	-817.81268	119.23103	848.61285	-786.95551	181.76314	833.55347	-783.45984	128.27509	759.63007	-1207.61414	223.12175	1414.15991	-1301.47144	256.50397	1217.79565	-1316.46863	245.24971	1096.53174	-1333.70508	218.09276	979.82184	-1299.70020	144.81543	848.61200	-1341.98889	196.75807	844.11902	-1342.58191	151.64856	772.54065	-940.39093	159.32204	966.37994	-1160.83630	148.37479	970.47729	-973.64502	315.04160	998.51654	-1142.26868	300.74805	1003.95868	-884.38861	191.42188	653.38422	-909.02051	163.20491	493.55783	-900.52026	297.69476	282.85889	-927.56006	376.54849	126.82644	-975.84857	417.01126	121.96751	-915.83826	258.39865	48.06526	-1209.55164	217.29729	637.21606	-1183.49829	221.44601	511.90073	-1174.33362	271.00122	250.05486	-1117.55750	282.83075	65.70686	-1073.94751	323.42661	41.85683	-1108.13635	127.96799	32.81012	-1050.37866	270.81705	1707.49524																											 
